<?xml version="1.0" standalone="no"?>
<!DOCTYPE svg PUBLIC "-//W3C//DTD SVG 20010904//EN"
 "http://www.w3.org/TR/2001/REC-SVG-20010904/DTD/svg10.dtd">
<svg version="1.0" xmlns="http://www.w3.org/2000/svg"
 width="600.000000pt" height="608.000000pt" viewBox="0 0 600.000000 608.000000"
 preserveAspectRatio="xMidYMid meet">

<g transform="translate(0.000000,608.000000) scale(0.100000,-0.100000)"
fill="#000000" stroke="none">
<path d="M2735 5970 c-436 -50 -793 -157 -1126 -339 -447 -243 -806 -573
-1074 -986 -32 -49 -66 -102 -77 -117 -26 -39 -142 -272 -179 -360 -79 -189
-164 -485 -188 -658 -43 -298 -50 -502 -26 -736 21 -198 37 -294 75 -446 138
-559 449 -1083 867 -1462 92 -82 111 -98 218 -182 160 -124 450 -294 605 -354
30 -11 70 -28 87 -36 86 -39 387 -127 528 -153 125 -24 423 -51 552 -51 370 0
761 78 1116 222 654 267 1220 802 1530 1448 125 261 209 530 258 825 26 159
36 540 19 726 -52 568 -269 1105 -628 1559 -98 124 -339 364 -470 468 -89 71
-145 110 -342 238 -52 34 -267 141 -330 165 -30 11 -59 24 -65 28 -43 33 -427
141 -585 166 -58 9 -127 21 -155 27 -63 13 -516 19 -610 8z m635 -365 c702
-106 1329 -495 1736 -1077 157 -224 290 -505 370 -783 126 -443 126 -980 -1
-1420 -159 -553 -461 -1000 -912 -1348 -171 -132 -364 -244 -618 -358 -110
-49 -400 -128 -570 -154 -211 -33 -583 -30 -805 7 -161 26 -424 103 -575 168
-779 332 -1354 1033 -1524 1860 -47 227 -54 300 -54 535 1 360 45 599 175 943
188 500 568 962 1034 1257 200 127 540 275 737 320 167 38 199 44 287 54 52 6
109 13 125 15 70 10 495 -3 595 -19z"/>
<path d="M3420 5123 c-449 -21 -490 -26 -622 -88 -169 -78 -299 -215 -367
-387 -43 -108 -51 -199 -51 -553 0 -177 -4 -316 -10 -325 -8 -12 -47 -16 -230
-18 l-220 -3 0 -350 0 -349 230 0 230 0 0 -1045 0 -1045 470 0 470 0 2 1042 3
1043 317 3 317 2 5 33 c23 148 84 661 79 670 -2 4 -164 7 -359 7 l-354 0 -1
48 c-8 401 -6 439 37 504 13 21 43 48 67 60 40 22 56 23 322 29 154 3 281 6
283 7 1 1 2 164 2 362 l0 360 -277 -2 c-153 -1 -307 -3 -343 -5z"/>
<path d="M1497 43 c827 -2 2179 -2 3005 0 827 1 151 2 -1502 2 -1653 0 -2329
-1 -1503 -2z"/>
</g>
</svg>
