<?xml version="1.0" standalone="no"?>
<!DOCTYPE svg PUBLIC "-//W3C//DTD SVG 20010904//EN"
 "http://www.w3.org/TR/2001/REC-SVG-20010904/DTD/svg10.dtd">
<svg version="1.0" xmlns="http://www.w3.org/2000/svg"
 width="602.000000pt" height="603.000000pt" viewBox="0 0 602.000000 603.000000"
 preserveAspectRatio="xMidYMid meet">

<g transform="translate(0.000000,603.000000) scale(0.100000,-0.100000)"
fill="#000000" stroke="none">
<path d="M1890 5999 c-244 -10 -388 -24 -510 -50 -368 -79 -673 -252 -896
-507 -97 -110 -162 -209 -229 -347 -108 -220 -157 -407 -175 -661 -6 -82 -16
-207 -22 -279 -16 -190 -23 -1936 -8 -2295 15 -385 40 -548 121 -776 204 -577
737 -983 1372 -1043 428 -41 2570 -41 2962 0 442 46 806 227 1088 539 236 261
377 631 409 1069 16 228 17 2495 1 2701 -22 270 -70 481 -154 672 -181 411
-520 716 -963 863 -143 48 -279 73 -457 85 -85 6 -208 16 -274 22 -146 14
-1975 20 -2265 7z m2350 -549 c244 -11 338 -25 507 -75 186 -56 270 -102 381
-209 212 -205 301 -378 353 -691 30 -177 41 -618 42 -1615 0 -914 -9 -1227
-42 -1395 -25 -131 -84 -312 -129 -400 -42 -79 -176 -226 -282 -307 -82 -62
-284 -162 -373 -183 -215 -51 -564 -64 -1782 -64 -1171 -1 -1322 8 -1585 89
-204 64 -287 115 -421 259 -140 150 -217 288 -264 477 -45 174 -55 290 -66
714 -13 492 -5 2137 10 2299 15 155 59 333 120 489 35 88 97 176 185 260 107
103 182 158 293 214 208 107 341 128 873 137 591 11 1943 12 2180 1z"/>
<path d="M4535 4945 c-198 -80 -256 -328 -115 -489 74 -83 217 -119 331 -81
67 23 144 92 175 160 37 77 34 182 -7 263 -73 147 -234 208 -384 147z"/>
<path d="M2840 4526 c-909 -132 -1504 -986 -1310 -1877 108 -497 473 -924 946
-1109 223 -87 471 -123 701 -102 279 26 510 108 743 263 122 81 323 281 407
404 323 478 361 1072 102 1587 -211 419 -620 727 -1086 818 -139 27 -372 35
-503 16z m415 -555 c396 -82 699 -389 781 -791 25 -125 16 -355 -19 -470 -35
-117 -70 -191 -132 -286 -102 -152 -237 -268 -406 -349 -159 -75 -235 -90
-439 -89 -161 0 -182 3 -265 28 -176 53 -307 128 -433 250 -181 174 -286 409
-299 667 -15 306 91 577 305 781 152 144 332 234 542 271 71 12 280 6 365 -12z"/>
</g>
</svg>
