<?xml version="1.0" standalone="no"?>
<!DOCTYPE svg PUBLIC "-//W3C//DTD SVG 20010904//EN"
 "http://www.w3.org/TR/2001/REC-SVG-20010904/DTD/svg10.dtd">
<svg version="1.0" xmlns="http://www.w3.org/2000/svg"
 width="607.000000pt" height="608.000000pt" viewBox="0 0 607.000000 608.000000"
 preserveAspectRatio="xMidYMid meet">

<g transform="translate(0.000000,608.000000) scale(0.100000,-0.100000)"
fill="#000000" stroke="none">
<path d="M731 5715 c-150 -34 -239 -80 -334 -173 -119 -117 -167 -227 -174
-402 -8 -177 26 -290 125 -421 116 -155 306 -240 539 -240 260 0 461 95 582
276 65 98 92 182 98 311 16 303 -161 553 -447 634 -99 28 -298 36 -389 15z"/>
<path d="M4310 4064 c-384 -48 -647 -196 -866 -487 l-74 -98 0 251 0 250 -602
0 -603 0 -2 -1815 -2 -1815 604 0 605 0 0 1088 c0 1189 -1 1161 59 1281 98
198 250 329 436 376 79 20 250 20 329 -1 184 -48 317 -179 385 -381 53 -157
54 -178 56 -1303 2 -575 3 -1048 4 -1052 0 -5 271 -8 601 -8 l600 0 0 1118 c0
700 -4 1160 -11 1232 -54 601 -323 1037 -762 1240 -173 80 -355 119 -577 125
-80 2 -161 1 -180 -1z"/>
<path d="M290 2165 l0 -1815 600 0 600 0 0 1815 0 1815 -600 0 -600 0 0 -1815z"/>
</g>
</svg>
